<svg width="100%" height="100%" viewBox="0 0 32 32" fill="none" xmlns="http://www.w3.org/2000/svg">
<path d="M2.8048 29.83C3.33447 30.404 5.51619 29.403 7.23823 28.6003C8.52859 28.0006 13.6924 25.8819 16.2591 24.7829C16.9521 24.4865 17.9601 24.0992 18.6858 23.1448C19.3298 22.2955 21.0379 18.6881 17.5985 15.034C14.1077 11.3239 10.512 12.3483 9.16793 13.3003C8.37692 13.8603 7.7329 15.1227 7.44356 15.7643C6.22087 18.4757 4.47783 23.4435 3.76848 25.3965C3.24814 26.8362 2.27978 29.2606 2.8048 29.83Z" fill="#FFC107"/>
<path d="M7.09824 16.581C7.1309 16.987 7.21257 17.6474 7.49258 18.919C7.68392 19.7917 7.99659 20.7064 8.25093 21.3108C9.01394 23.1285 10.085 23.8612 11.17 24.4492C13.0134 25.4479 14.2664 25.6345 14.2664 25.6345L12.7637 26.2482C12.7637 26.2482 11.8537 26.0592 10.6123 25.4479C9.42929 24.8645 8.19726 23.8775 7.29657 21.9454C6.9069 21.1078 6.68056 20.2957 6.54989 19.6517C6.38889 18.8537 6.36322 18.401 6.36322 18.401L7.09824 16.581Z" fill="#FF8F00"/>
<path d="M5.2525 21.3131C5.2525 21.3131 5.43917 22.8275 6.68987 24.7385C8.15523 26.9739 10.2016 27.3402 10.2016 27.3402L8.84125 27.9003C8.84125 27.9003 7.32222 27.4359 5.87785 25.4642C4.97716 24.2345 4.72516 22.7645 4.72516 22.7645L5.2525 21.3131Z" fill="#FF8F00"/>
<path d="M3.95749 24.9019C3.95749 24.9019 4.29817 26.2086 5.04485 27.1839C5.93387 28.3483 7.06556 28.6866 7.06556 28.6866L6.02254 29.1486C6.02254 29.1486 5.23152 28.9829 4.36583 27.8863C3.70782 27.0532 3.52115 26.0965 3.52115 26.0965L3.95749 24.9019Z" fill="#FF8F00"/>
<g opacity="0.44">
<path d="M3.39049 28.2199C3.34382 28.1149 3.34382 27.9959 3.39282 27.8932L9.33595 15.5683L10.3136 19.2434L4.06017 28.2759C3.89217 28.5279 3.51416 28.4952 3.39049 28.2199Z" fill="#FFFDE7"/>
</g>
<path d="M10.785 20.4777C13.5617 23.7258 16.7234 23.3198 17.7758 22.4984C18.8305 21.6748 19.6635 18.8444 16.8984 15.65C14.0004 12.3039 10.7196 13.2582 9.96129 13.9816C9.20294 14.7049 8.23692 17.498 10.785 20.4777Z" fill="url(#paint0_linear_1897_1489)"/>
<path d="M20.3215 21.8148C19.3088 20.9655 18.7698 21.1171 18.0465 21.4181C17.1131 21.8055 15.6454 22.0925 13.6527 21.4181L14.2524 19.9738C15.4354 20.3728 16.2918 20.1791 17.0315 19.7428C17.9835 19.1828 19.2855 18.4151 21.3109 20.1161C22.1556 20.8255 23.0212 21.2968 23.6559 21.0821C24.1179 20.9281 24.3629 20.2398 24.4866 19.6914C24.4983 19.6424 24.5169 19.5024 24.5309 19.3788C24.6429 18.5224 24.8296 16.6744 26.2063 15.7293C27.6787 14.719 29.2257 14.719 29.2257 14.719L29.5057 17.5004C28.794 17.3954 28.2994 17.5401 27.8817 17.7711C26.309 18.6461 27.6787 22.0062 25.231 23.1355C22.8766 24.2299 20.9515 22.3422 20.3215 21.8148Z" fill="#03A9F4"/>
<path d="M11.66 18.268L10.6473 17.3604C12.507 15.2837 12.017 13.7576 11.66 12.6469C11.5877 12.4229 11.52 12.2106 11.4757 12.0076C11.317 11.2889 11.2843 10.6636 11.3333 10.1175C10.6193 9.22852 10.3043 8.2975 10.2833 8.2345C9.84929 6.9208 10.176 5.63977 10.925 4.43808C12.4393 1.99969 15.1811 1.99969 15.1811 1.99969L16.0958 4.44741C15.4004 4.41941 13.1207 4.45441 12.4207 5.55811C11.5363 6.9488 12.1173 7.80749 12.1593 7.90549C12.3297 7.68382 12.5023 7.50648 12.6564 7.36881C13.774 6.37712 14.7447 6.23479 15.3631 6.29079C16.0584 6.35379 16.6884 6.7038 17.1388 7.27781C17.6311 7.90782 17.8341 8.72684 17.6778 9.47119C17.5261 10.1969 17.0431 10.8106 16.3174 11.2002C15.0504 11.8816 13.9957 11.7882 13.2887 11.5526C13.2934 11.5689 13.2957 11.5876 13.3004 11.6039C13.326 11.7206 13.3774 11.8839 13.438 12.0729C13.851 13.3516 14.6187 15.3817 11.66 18.268ZM13.375 9.51086C13.5104 9.60886 13.6527 9.69053 13.7997 9.74886C14.2897 9.94487 14.8241 9.87953 15.4307 9.55286C15.7878 9.36152 15.8298 9.15618 15.8438 9.08852C15.8858 8.88551 15.8158 8.62651 15.6641 8.43283C15.5311 8.2625 15.3771 8.17383 15.1927 8.15516C14.8427 8.12483 14.3691 8.3465 13.8954 8.76884C13.669 8.97185 13.4964 9.22152 13.375 9.51086Z" fill="#F44336"/>
<path d="M15.7131 18.6484L14.264 18.6087C14.264 18.6087 14.9524 14.7213 17.1808 14.0679C17.5984 13.9466 18.0558 13.8229 18.5155 13.7553C18.7885 13.7133 19.2201 13.6503 19.4325 13.5709C19.4815 13.2046 19.3275 12.7379 19.1548 12.2082C19.0195 11.7976 18.8795 11.3752 18.8048 10.9132C18.6601 10.0125 18.9005 9.21684 19.4815 8.6685C20.1908 8.00349 21.3365 7.79115 22.6292 8.08515C23.3666 8.25316 23.9102 8.61483 24.3886 8.93217C25.0723 9.38718 25.4713 9.61819 26.3066 9.05584C27.317 8.37449 25.9963 5.70744 25.2939 4.1674L27.9143 3.07538C28.2667 3.8454 29.9677 7.80748 28.8454 10.0685C28.4673 10.8292 27.8163 11.3332 26.9623 11.5222C25.1049 11.9376 24.0176 11.2142 23.2242 10.6869C22.8486 10.4372 22.5196 10.2412 22.1625 10.1385C19.6822 9.43152 23.1449 13.0809 21.5232 14.7213C20.5502 15.7037 18.1725 15.9627 18.0185 16C16.4878 16.3687 15.7131 18.6484 15.7131 18.6484Z" fill="#F48FB1"/>
<path d="M11.331 10.1176C11.2866 10.6309 11.2656 10.9366 11.3986 11.6039C12.0403 12.0753 13.438 12.0753 13.438 12.0753C13.3774 11.8863 13.3237 11.7229 13.3004 11.6063C13.2957 11.5899 13.2934 11.5713 13.2887 11.5549C11.8677 10.8456 11.331 10.1176 11.331 10.1176Z" fill="#C92B27"/>
<path d="M8.42358 12.4159L6.01086 11.2329L7.21256 9.49683L9.10493 10.7499L8.42358 12.4159Z" fill="#FFC107"/>
<path d="M4.86752 9.13985C3.63549 8.97418 2.38013 7.92883 2.24246 7.80982L3.45349 6.38879C3.81983 6.69913 4.59685 7.21948 5.11719 7.28948L4.86752 9.13985Z" fill="#FB8C00"/>
<path d="M7.04223 6.02945L5.26886 5.44844C5.47186 4.82776 5.52553 4.15808 5.42053 3.51173L7.2639 3.21539C7.41557 4.15341 7.33857 5.12643 7.04223 6.02945Z" fill="#03A9F4"/>
<path d="M19.9407 4.2433L18.1172 4.64221L18.6437 7.04935L20.4673 6.65043L19.9407 4.2433Z" fill="#FB8C00"/>
<path d="M22.6409 5.21275L21.3575 3.85705C22.0296 3.22004 22.1836 2.38702 22.1836 2.37769L24.0269 2.67869C24.0036 2.8257 23.7679 4.14639 22.6409 5.21275Z" fill="#FFC107"/>
<path d="M24.9844 11.8927L23.354 12.4022L23.9109 14.184L25.5412 13.6745L24.9844 11.8927Z" fill="#FB8C00"/>
<path d="M23.8286 27.4405L21.9735 27.2212C22.0529 26.5609 21.5605 25.7512 21.4252 25.5715L22.9186 24.4515C23.0306 24.5985 24.0036 25.9448 23.8286 27.4405Z" fill="#F44336"/>
<path d="M29.1534 25.0745C28.4557 24.9695 27.7417 24.9275 27.037 24.9532L26.974 23.0865C27.793 23.0585 28.6214 23.1051 29.4311 23.2288L29.1534 25.0745Z" fill="#FB8C00"/>
<path d="M27.9551 26.3157L26.6435 27.644L28.4484 29.4261L29.76 28.0978L27.9551 26.3157Z" fill="#F48FB1"/>
<path d="M24.1387 17.386L22.79 15.8439L21.2479 17.1926L22.5966 18.7347L24.1387 17.386Z" fill="#F44336"/>
<defs>
<linearGradient id="paint0_linear_1897_1489" x1="18.4231" y1="15.4956" x2="11.4773" y2="19.6631" gradientUnits="userSpaceOnUse">
<stop offset="0.0235" stop-color="#8F4700"/>
<stop offset="1" stop-color="#703E2D"/>
</linearGradient>
</defs>
</svg>
