<svg width="32" height="32" viewBox="0 0 32 32" fill="none" xmlns="http://www.w3.org/2000/svg">
<path d="M1.86251 30.8175C2.43001 31.4325 4.76751 30.36 6.61251 29.5C7.99501 28.8575 13.5275 26.5875 16.2775 25.41C17.02 25.0925 18.1 24.6775 18.8775 23.655C19.5675 22.745 21.3975 18.88 17.7125 14.965C13.9725 10.99 10.12 12.0875 8.68001 13.1075C7.83251 13.7075 7.14251 15.06 6.83251 15.7475C5.52251 18.6525 3.65501 23.975 2.89501 26.0675C2.33751 27.61 1.30001 30.2075 1.86251 30.8175Z" fill="#FFC107"/>
<path d="M6.46252 16.6225C6.49752 17.0575 6.58502 17.765 6.88502 19.1275C7.09002 20.0625 7.42502 21.0425 7.69752 21.69C8.51502 23.6375 9.66252 24.4225 10.825 25.0525C12.8 26.1225 14.1425 26.3225 14.1425 26.3225L12.5325 26.98C12.5325 26.98 11.5575 26.7775 10.2275 26.1225C8.96002 25.4975 7.64002 24.44 6.67502 22.37C6.25752 21.4725 6.01502 20.6025 5.87502 19.9125C5.70252 19.0575 5.67502 18.5725 5.67502 18.5725L6.46252 16.6225Z" fill="#FF8F00"/>
<path d="M4.48501 21.6925C4.48501 21.6925 4.68501 23.315 6.02501 25.3625C7.59501 27.7575 9.78751 28.15 9.78751 28.15L8.33001 28.75C8.33001 28.75 6.70251 28.2525 5.15501 26.14C4.19001 24.8225 3.92001 23.2475 3.92001 23.2475L4.48501 21.6925Z" fill="#FF8F00"/>
<path d="M3.0975 25.5375C3.0975 25.5375 3.4625 26.9375 4.2625 27.9825C5.215 29.23 6.4275 29.5925 6.4275 29.5925L5.31 30.0875C5.31 30.0875 4.4625 29.91 3.535 28.735C2.83 27.8425 2.63 26.8175 2.63 26.8175L3.0975 25.5375Z" fill="#FF8F00"/>
<g opacity="0.44">
<path d="M2.49001 29.0925C2.44001 28.98 2.44001 28.8525 2.49251 28.7425L8.86001 15.5375L9.90751 19.475L3.20751 29.1525C3.02751 29.4225 2.62251 29.3875 2.49001 29.0925Z" fill="#FFFDE7"/>
</g>
<path d="M10.4125 20.7975C13.3875 24.2775 16.775 23.8425 17.9025 22.9625C19.0325 22.08 19.925 19.0475 16.9625 15.625C13.8575 12.04 10.3425 13.0625 9.53001 13.8375C8.71751 14.6125 7.68251 17.605 10.4125 20.7975Z" fill="url(#paint0_linear_750_2412)"/>
<path d="M20.63 22.23C19.545 21.32 18.9675 21.4825 18.1925 21.805C17.1925 22.22 15.62 22.5275 13.485 21.805L14.1275 20.2575C15.395 20.685 16.3125 20.4775 17.105 20.01C18.125 19.41 19.52 18.5875 21.69 20.41C22.595 21.17 23.5225 21.675 24.2025 21.445C24.6975 21.28 24.96 20.5425 25.0925 19.955C25.105 19.9025 25.125 19.7525 25.14 19.62C25.26 18.7025 25.46 16.7225 26.935 15.71C28.5125 14.6275 30.17 14.6275 30.17 14.6275L30.47 17.6075C29.7075 17.495 29.1775 17.65 28.73 17.8975C27.045 18.835 28.5125 22.435 25.89 23.645C23.3675 24.8175 21.305 22.795 20.63 22.23Z" fill="#03A9F4"/>
<path d="M11.35 18.43L10.265 17.4575C12.2575 15.2325 11.7325 13.5975 11.35 12.4075C11.2725 12.1675 11.2 11.94 11.1525 11.7225C10.9825 10.9525 10.9475 10.2825 11 9.6975C10.235 8.745 9.8975 7.7475 9.875 7.68C9.41 6.2725 9.76 4.9 10.5625 3.6125C12.185 1 15.1225 1 15.1225 1L16.1025 3.6225C15.3575 3.5925 12.915 3.63 12.165 4.8125C11.2175 6.3025 11.84 7.2225 11.885 7.3275C12.0675 7.09 12.2525 6.9 12.4175 6.7525C13.615 5.69 14.655 5.5375 15.3175 5.5975C16.0625 5.665 16.7375 6.04 17.22 6.655C17.7475 7.33 17.965 8.2075 17.7975 9.005C17.635 9.7825 17.1175 10.44 16.34 10.8575C14.9825 11.5875 13.8525 11.4875 13.095 11.235C13.1 11.2525 13.1025 11.2725 13.1075 11.29C13.135 11.415 13.19 11.59 13.255 11.7925C13.6975 13.1625 14.52 15.3375 11.35 18.43ZM13.1875 9.0475C13.3325 9.1525 13.485 9.24 13.6425 9.3025C14.1675 9.5125 14.74 9.4425 15.39 9.0925C15.7725 8.8875 15.8175 8.6675 15.8325 8.595C15.8775 8.3775 15.8025 8.1 15.64 7.8925C15.4975 7.71 15.3325 7.615 15.135 7.595C14.76 7.5625 14.2525 7.8 13.745 8.2525C13.5025 8.47 13.3175 8.7375 13.1875 9.0475Z" fill="#F44336"/>
<path d="M15.6925 18.8375L14.14 18.795C14.14 18.795 14.8775 14.63 17.265 13.93C17.7125 13.8 18.2025 13.6675 18.695 13.595C18.9875 13.55 19.45 13.4825 19.6775 13.3975C19.73 13.005 19.565 12.505 19.38 11.9375C19.235 11.4975 19.085 11.045 19.005 10.55C18.85 9.58503 19.1075 8.73253 19.73 8.14503C20.49 7.43253 21.7175 7.20503 23.1025 7.52003C23.8925 7.70003 24.475 8.08753 24.9875 8.42753C25.72 8.91503 26.1475 9.16253 27.0425 8.56003C28.125 7.83003 26.71 4.97253 25.9575 3.32253L28.765 2.15253C29.1425 2.97753 30.965 7.22253 29.7625 9.64503C29.3575 10.46 28.66 11 27.745 11.2025C25.755 11.6475 24.59 10.8725 23.74 10.3075C23.3375 10.04 22.985 9.83003 22.6025 9.72003C19.945 8.96253 23.655 12.8725 21.9175 14.63C20.875 15.6825 18.3275 15.96 18.1625 16C16.5225 16.395 15.6925 18.8375 15.6925 18.8375Z" fill="#F48FB1"/>
<path d="M10.9975 9.69751C10.95 10.2475 10.9275 10.575 11.07 11.29C11.7575 11.795 13.255 11.795 13.255 11.795C13.19 11.5925 13.1325 11.4175 13.1075 11.2925C13.1025 11.275 13.1 11.255 13.095 11.2375C11.5725 10.4775 10.9975 9.69751 10.9975 9.69751Z" fill="#C92B27"/>
<path d="M7.88252 12.16L5.29752 10.8925L6.58502 9.03247L8.61252 10.375L7.88252 12.16Z" fill="#FFC107"/>
<path d="M4.07251 8.65001C2.75251 8.47251 1.40751 7.35251 1.26001 7.22501L2.55751 5.70251C2.95001 6.03501 3.78251 6.59251 4.34001 6.66751L4.07251 8.65001Z" fill="#FB8C00"/>
<path d="M6.4025 5.31749L4.5025 4.69499C4.72 4.02999 4.7775 3.31249 4.665 2.61999L6.64 2.30249C6.8025 3.30749 6.72 4.34999 6.4025 5.31749Z" fill="#03A9F4"/>
<path d="M20.222 3.40384L18.2682 3.83124L18.8324 6.41025L20.7862 5.98285L20.222 3.40384Z" fill="#FB8C00"/>
<path d="M23.115 4.44253L21.74 2.99003C22.46 2.30753 22.625 1.41503 22.625 1.40503L24.6 1.72753C24.575 1.88503 24.3225 3.30003 23.115 4.44253Z" fill="#FFC107"/>
<path d="M25.6258 11.5994L23.8791 12.1453L24.4757 14.0543L26.2224 13.5084L25.6258 11.5994Z" fill="#FB8C00"/>
<path d="M24.3875 28.2575L22.4 28.0225C22.485 27.315 21.9575 26.4475 21.8125 26.255L23.4125 25.055C23.5325 25.2125 24.575 26.655 24.3875 28.2575Z" fill="#F44336"/>
<path d="M30.0925 25.7225C29.345 25.61 28.58 25.565 27.825 25.5925L27.7575 23.5925C28.635 23.5625 29.5225 23.6125 30.39 23.745L30.0925 25.7225Z" fill="#FB8C00"/>
<path d="M28.8086 27.0523L27.4034 28.4755L29.3372 30.3848L30.7424 28.9616L28.8086 27.0523Z" fill="#F48FB1"/>
<path d="M24.7197 17.4849L23.2748 15.8328L21.6226 17.2777L23.0676 18.9299L24.7197 17.4849Z" fill="#F44336"/>
<defs>
<linearGradient id="paint0_linear_750_2412" x1="18.5961" y1="15.4597" x2="11.1543" y2="19.9248" gradientUnits="userSpaceOnUse">
<stop offset="0.0235" stop-color="#8F4700"/>
<stop offset="1" stop-color="#703E2D"/>
</linearGradient>
</defs>
</svg>
