<svg width="512" height="512" viewBox="0 0 512 512" fill="none" xmlns="http://www.w3.org/2000/svg">
<rect x="16" y="16" width="480" height="480" rx="48" fill="#C7D2FE"/>
<mask id="mask0_1532_9032" style="mask-type:alpha" maskUnits="userSpaceOnUse" x="96" y="96" width="320" height="320">
<path d="M416 416L96 416L96 96L416 96L416 416Z" fill="#D9D9D9"/>
</mask>
<g mask="url(#mask0_1532_9032)">
<path d="M209.336 271C203.779 271 199.056 272.944 195.168 276.832C191.28 280.72 189.336 285.443 189.336 291C189.336 296.557 191.28 301.224 195.168 305C199.056 308.776 203.779 310.664 209.336 310.664C214.669 310.664 219.28 308.776 223.168 305C227.056 301.224 229 296.557 229 291C229 285.443 227.056 280.72 223.168 276.832C219.28 272.944 214.669 271 209.336 271ZM302.664 271C297.331 271 292.72 272.944 288.832 276.832C284.944 280.72 283 285.331 283 290.664C283 296.221 284.944 300.944 288.832 304.832C292.72 308.72 297.331 310.664 302.664 310.664C308.221 310.664 312.944 308.776 316.832 305C320.72 301.224 322.664 296.557 322.664 291C322.664 285.443 320.72 280.72 316.832 276.832C312.944 272.944 308.221 271 302.664 271ZM256 183C241.109 183 227.499 187.056 215.168 195.168C202.832 203.28 193.888 214.112 188.336 227.664L210 227.664C214.891 219.664 221.445 213.499 229.664 209.168C237.888 204.832 246.667 202.664 256 202.664C265.333 202.664 274.112 204.832 282.336 209.168C290.555 213.499 296.997 219.664 301.664 227.664L323.664 227.664C317.888 214.112 308.888 203.28 296.664 195.168C284.445 187.056 270.891 183 256 183ZM256 117.336C275.109 117.336 293.109 120.947 310 128.168C326.891 135.389 341.613 145.277 354.168 157.832C366.723 170.387 376.611 185.109 383.832 202C391.053 218.891 394.664 236.891 394.664 256C394.664 275.109 391.053 293.109 383.832 310C376.611 326.891 366.723 341.613 354.168 354.168C341.613 366.723 326.891 376.611 310 383.832C293.109 391.053 275.109 394.664 256 394.664C236.891 394.664 218.891 391.053 202 383.832C185.109 376.611 170.387 366.723 157.832 354.168C145.277 341.613 135.389 326.891 128.168 310C120.947 293.109 117.336 275.109 117.336 256C117.336 236.891 120.947 218.891 128.168 202C135.389 185.109 145.277 170.387 157.832 157.832C170.387 145.277 185.109 135.389 202 128.168C218.891 120.947 236.891 117.336 256 117.336ZM256 146.664C225.557 146.664 199.723 157.275 178.496 178.496C157.275 199.723 146.664 225.557 146.664 256C146.664 286.443 157.275 312.275 178.496 333.496C199.723 354.723 225.557 365.336 256 365.336C286.443 365.336 312.277 354.723 333.504 333.496C354.725 312.275 365.336 286.443 365.336 256C365.336 225.557 354.725 199.723 333.504 178.496C312.277 157.275 286.443 146.664 256 146.664Z" fill="#1E1B4B"/>
</g>
<rect x="16" y="16" width="480" height="480" rx="48" stroke="#1E1B4B" stroke-width="32"/>
</svg>
