<svg width="96" height="32" viewBox="0 0 96 32" preserveAspectRatio="xMidYMid meet" fill="none" xmlns="http://www.w3.org/2000/svg">
<path fill-rule="evenodd" clip-rule="evenodd" d="M32 0H0V18.6667L13.3337 32H32V0Z" fill="#FDE68A"/>
<path d="M13.3337 32L0 18.6667H13.3337L13.3337 32Z" fill="#FCD34D"/>
<path d="M50.27 4.28358H48.141L45.1425 9.22388L42.1289 4.28358H40V14.7313H42.069V7.97015L45.0225 12.806H45.2624L48.216 7.95522V14.7313H50.27V4.28358Z" fill="#111827"/>
<path d="M53.9496 11.791H59.6019C59.6468 11.5373 59.6768 11.2836 59.6768 11C59.6768 8.80597 58.1026 7.0597 55.8837 7.0597C53.5298 7.0597 51.9256 8.77612 51.9256 11C51.9256 13.2239 53.5148 14.9403 56.0336 14.9403C57.4729 14.9403 58.5973 14.3582 59.302 13.3433L57.7428 12.4478C57.4129 12.8806 56.8132 13.194 56.0636 13.194C55.0441 13.194 54.2195 12.7761 53.9496 11.791ZM53.9196 10.2985C54.1445 9.34328 54.8492 8.79105 55.8837 8.79105C56.6933 8.79105 57.5029 9.22388 57.7428 10.2985H53.9196Z" fill="#111827"/>
<path d="M62.7825 11.791H68.4348C68.4797 11.5373 68.5097 11.2836 68.5097 11C68.5097 8.80597 66.9355 7.0597 64.7166 7.0597C62.3627 7.0597 60.7585 8.77612 60.7585 11C60.7585 13.2239 62.3477 14.9403 64.8665 14.9403C66.3058 14.9403 67.4303 14.3582 68.1349 13.3433L66.5757 12.4478C66.2458 12.8806 65.6461 13.194 64.8965 13.194C63.877 13.194 63.0524 12.7761 62.7825 11.791ZM62.7525 10.2985C62.9774 9.34328 63.6821 8.79105 64.7166 8.79105C65.5262 8.79105 66.3358 9.22388 66.5757 10.2985H62.7525Z" fill="#111827"/>
<path d="M74.1081 9.1194V7.26866H72.4139V5.1791L70.4799 5.76119V7.26866H69.1755V9.1194H70.4799V12.2239C70.4799 14.2388 71.3944 15.0299 74.1081 14.7313V12.9851C72.9986 13.0448 72.4139 13.0299 72.4139 12.2239V9.1194H74.1081Z" fill="#111827"/>
<path d="M76.6112 6.37314C77.2708 6.37314 77.8106 5.83582 77.8106 5.19403C77.8106 4.55224 77.2708 4 76.6112 4C75.9665 4 75.4267 4.55224 75.4267 5.19403C75.4267 5.83582 75.9665 6.37314 76.6112 6.37314ZM75.6516 14.7313H77.5857V7.26866H75.6516V14.7313Z" fill="#111827"/>
<path d="M83.7038 7.0597C82.6992 7.0597 81.9196 7.43284 81.4698 8.10448V7.26866H79.5358V14.7313H81.4698V10.7015C81.4698 9.40299 82.1745 8.85075 83.119 8.85075C83.9886 8.85075 84.6033 9.37313 84.6033 10.3881V14.7313H86.5374V10.1493C86.5374 8.16418 85.293 7.0597 83.7038 7.0597Z" fill="#111827"/>
<path d="M94.1109 7.26866V8.19403C93.5862 7.49254 92.7766 7.0597 91.7121 7.0597C89.5831 7.0597 87.9789 8.79104 87.9789 10.8806C87.9789 12.9851 89.5831 14.7015 91.7121 14.7015C92.7766 14.7015 93.5862 14.2687 94.1109 13.5672V14.3731C94.1109 15.5522 93.3613 16.209 92.1469 16.209C90.9924 16.209 90.4977 15.7463 90.1828 15.1642L88.5336 16.1045C89.1933 17.3134 90.4827 17.9254 92.0869 17.9254C94.0659 17.9254 96 16.8209 96 14.3731V7.26866H94.1109ZM92.0119 12.9254C90.7975 12.9254 89.9129 12.0746 89.9129 10.8806C89.9129 9.70149 90.7975 8.85075 92.0119 8.85075C93.2263 8.85075 94.1109 9.70149 94.1109 10.8806C94.1109 12.0746 93.2263 12.9254 92.0119 12.9254Z" fill="#111827"/>
<path d="M50.27 17.3433H48.141L45.1425 22.2836L42.1289 17.3433H40V27.791H42.069V21.0299L45.0225 25.8657H45.2624L48.216 21.0149V27.791H50.27V17.3433Z" fill="#111827"/>
<path d="M55.7038 28C57.9077 28 59.6768 26.2836 59.6768 24.0597C59.6768 21.8358 57.9077 20.1194 55.7038 20.1194C53.4998 20.1194 51.7457 21.8358 51.7457 24.0597C51.7457 26.2836 53.4998 28 55.7038 28ZM55.7038 26.1194C54.5643 26.1194 53.6797 25.2687 53.6797 24.0597C53.6797 22.8507 54.5643 22 55.7038 22C56.8582 22 57.7428 22.8507 57.7428 24.0597C57.7428 25.2687 56.8582 26.1194 55.7038 26.1194Z" fill="#111827"/>
<path d="M64.6057 28C66.8096 28 68.5787 26.2836 68.5787 24.0597C68.5787 21.8358 66.8096 20.1194 64.6057 20.1194C62.4017 20.1194 60.6476 21.8358 60.6476 24.0597C60.6476 26.2836 62.4017 28 64.6057 28ZM64.6057 26.1194C63.4662 26.1194 62.5816 25.2687 62.5816 24.0597C62.5816 22.8507 63.4662 22 64.6057 22C65.7601 22 66.6447 22.8507 66.6447 24.0597C66.6447 25.2687 65.7601 26.1194 64.6057 26.1194Z" fill="#111827"/>
<path d="M75.6215 17.3433V21.209C75.0818 20.5224 74.2872 20.1194 73.1927 20.1194C71.1837 20.1194 69.5345 21.8358 69.5345 24.0597C69.5345 26.2836 71.1837 28 73.1927 28C74.2872 28 75.0818 27.597 75.6215 26.9104V27.791H77.5556V17.3433H75.6215ZM73.5525 26.1642C72.3531 26.1642 71.4686 25.3134 71.4686 24.0597C71.4686 22.806 72.3531 21.9552 73.5525 21.9552C74.737 21.9552 75.6215 22.806 75.6215 24.0597C75.6215 25.3134 74.737 26.1642 73.5525 26.1642Z" fill="#111827"/>
<path d="M81.0499 22.4478C81.0499 22.0448 81.4397 21.8358 81.9195 21.8358C82.4742 21.8358 82.894 22.1194 83.1189 22.597L84.7681 21.7015C84.1834 20.6716 83.1339 20.1194 81.9195 20.1194C80.3753 20.1194 79.0709 20.9701 79.0709 22.4925C79.0709 25.1194 82.939 24.5224 82.939 25.6119C82.939 26.0448 82.5192 26.2537 81.9045 26.2537C81.1549 26.2537 80.6451 25.8955 80.4352 25.2836L78.7561 26.2239C79.2958 27.3731 80.4053 28 81.9045 28C83.5087 28 84.918 27.2239 84.918 25.6119C84.918 22.8657 81.0499 23.5522 81.0499 22.4478Z" fill="#111827"/>
</svg>
