<svg width="104" height="40" viewBox="0 0 104 40" fill="none" xmlns="http://www.w3.org/2000/svg">
<mask id="mask0_1145_8904" style="mask-type:alpha" maskUnits="userSpaceOnUse" x="10" y="10" width="20" height="20">
<path d="M30 30L10 30L10 10L30 10L30 30Z" fill="#D9D9D9"/>
</mask>
<g mask="url(#mask0_1145_8904)">
<path d="M17.0835 20.9375C16.7362 20.9375 16.441 21.059 16.198 21.302C15.955 21.545 15.8335 21.8402 15.8335 22.1875C15.8335 22.5348 15.955 22.8265 16.198 23.0625C16.441 23.2985 16.7362 23.4165 17.0835 23.4165C17.4168 23.4165 17.705 23.2985 17.948 23.0625C18.191 22.8265 18.3125 22.5348 18.3125 22.1875C18.3125 21.8402 18.191 21.545 17.948 21.302C17.705 21.059 17.4168 20.9375 17.0835 20.9375ZM22.9165 20.9375C22.5832 20.9375 22.295 21.059 22.052 21.302C21.809 21.545 21.6875 21.8332 21.6875 22.1665C21.6875 22.5138 21.809 22.809 22.052 23.052C22.295 23.295 22.5832 23.4165 22.9165 23.4165C23.2638 23.4165 23.559 23.2985 23.802 23.0625C24.045 22.8265 24.1665 22.5348 24.1665 22.1875C24.1665 21.8402 24.045 21.545 23.802 21.302C23.559 21.059 23.2638 20.9375 22.9165 20.9375ZM20 15.4375C19.0693 15.4375 18.2187 15.691 17.448 16.198C16.677 16.705 16.118 17.382 15.771 18.229L17.125 18.229C17.4307 17.729 17.8403 17.3437 18.354 17.073C18.868 16.802 19.4167 16.6665 20 16.6665C20.5833 16.6665 21.132 16.802 21.646 17.073C22.1597 17.3437 22.5623 17.729 22.854 18.229L24.229 18.229C23.868 17.382 23.3055 16.705 22.5415 16.198C21.7778 15.691 20.9307 15.4375 20 15.4375ZM20 11.3335C21.1943 11.3335 22.3193 11.5592 23.375 12.0105C24.4307 12.4618 25.3508 13.0798 26.1355 13.8645C26.9202 14.6492 27.5382 15.5693 27.9895 16.625C28.4408 17.6807 28.6665 18.8057 28.6665 20C28.6665 21.1943 28.4408 22.3193 27.9895 23.375C27.5382 24.4307 26.9202 25.3508 26.1355 26.1355C25.3508 26.9202 24.4307 27.5382 23.375 27.9895C22.3193 28.4408 21.1943 28.6665 20 28.6665C18.8057 28.6665 17.6807 28.4408 16.625 27.9895C15.5693 27.5382 14.6492 26.9202 13.8645 26.1355C13.0798 25.3508 12.4618 24.4307 12.0105 23.375C11.5592 22.3193 11.3335 21.1943 11.3335 20C11.3335 18.8057 11.5592 17.6807 12.0105 16.625C12.4618 15.5693 13.0798 14.6492 13.8645 13.8645C14.6492 13.0798 15.5693 12.4618 16.625 12.0105C17.6807 11.5592 18.8057 11.3335 20 11.3335ZM20 13.1665C18.0973 13.1665 16.4827 13.8297 15.156 15.156C13.8297 16.4827 13.1665 18.0973 13.1665 20C13.1665 21.9027 13.8297 23.5172 15.156 24.8435C16.4827 26.1702 18.0973 26.8335 20 26.8335C21.9027 26.8335 23.5173 26.1702 24.844 24.8435C26.1703 23.5172 26.8335 21.9027 26.8335 20C26.8335 18.0973 26.1703 16.4827 24.844 15.156C23.5173 13.8297 21.9027 13.1665 20 13.1665Z" fill="#F9FAFB"/>
</g>
<rect x="5.01562" y="5.01562" width="29.9688" height="29.9688" stroke="#F9FAFB" stroke-width="2.03125"/>
<path d="M53.0264 7.16278H50.7407L47.5213 12.4909L44.2858 7.16278H42V18.4307H44.2214V11.1387L47.3925 16.3542H47.65L50.8212 11.1226V18.4307H53.0264V7.16278Z" fill="#F9FAFB"/>
<path d="M56.623 15.2596H62.6916C62.7399 14.9859 62.772 14.7123 62.772 14.4064C62.772 12.0402 61.0819 10.1568 58.6995 10.1568C56.1723 10.1568 54.4499 12.008 54.4499 14.4064C54.4499 16.8049 56.1562 18.656 58.8605 18.656C60.4058 18.656 61.6131 18.0283 62.3696 16.9337L60.6955 15.9678C60.3414 16.4346 59.6975 16.7727 58.8927 16.7727C57.7981 16.7727 56.9127 16.322 56.623 15.2596ZM56.5908 13.6499C56.8323 12.6197 57.5888 12.0241 58.6995 12.0241C59.5687 12.0241 60.438 12.4909 60.6955 13.6499H56.5908Z" fill="#F9FAFB"/>
<path d="M65.7524 15.2596H71.8209C71.8692 14.9859 71.9014 14.7123 71.9014 14.4064C71.9014 12.0402 70.2112 10.1568 67.8289 10.1568C65.3017 10.1568 63.5793 12.008 63.5793 14.4064C63.5793 16.8049 65.2856 18.656 67.9899 18.656C69.5352 18.656 70.7424 18.0283 71.499 16.9337L69.8249 15.9678C69.4708 16.4346 68.8269 16.7727 68.0221 16.7727C66.9275 16.7727 66.0421 16.322 65.7524 15.2596ZM65.7202 13.6499C65.9616 12.6197 66.7182 12.0241 67.8289 12.0241C68.6981 12.0241 69.5674 12.4909 69.8249 13.6499H65.7202Z" fill="#F9FAFB"/>
<path d="M77.558 12.3782V10.3822H75.7391V8.1286L73.6625 8.75638V10.3822H72.2621V12.3782H73.6625V15.7264C73.6625 17.8995 74.6445 18.7526 77.558 18.4307V16.5473C76.3668 16.6117 75.7391 16.5956 75.7391 15.7264V12.3782H77.558Z" fill="#F9FAFB"/>
<path d="M79.8913 9.41636C80.5996 9.41636 81.1791 8.83686 81.1791 8.14469C81.1791 7.45252 80.5996 6.85693 79.8913 6.85693C79.1992 6.85693 78.6197 7.45252 78.6197 8.14469C78.6197 8.83686 79.1992 9.41636 79.8913 9.41636ZM78.8611 18.4307H80.9376V10.3822H78.8611V18.4307Z" fill="#F9FAFB"/>
<path d="M87.1522 10.1568C86.0737 10.1568 85.2367 10.5592 84.7538 11.2836V10.3822H82.6772V18.4307H84.7538V14.0845C84.7538 12.684 85.5103 12.0885 86.5244 12.0885C87.458 12.0885 88.118 12.6519 88.118 13.7464V18.4307H90.1945V13.4889C90.1945 11.348 88.8585 10.1568 87.1522 10.1568Z" fill="#F9FAFB"/>
<path d="M97.9718 10.3822V11.3802C97.4084 10.6236 96.5391 10.1568 95.3963 10.1568C93.1105 10.1568 91.3881 12.0241 91.3881 14.2777C91.3881 16.5473 93.1105 18.3985 95.3963 18.3985C96.5391 18.3985 97.4084 17.9317 97.9718 17.1751V18.0443C97.9718 19.316 97.1669 20.0243 95.8631 20.0243C94.6236 20.0243 94.0924 19.5253 93.7544 18.8975L91.9837 19.9116C92.692 21.2155 94.0763 21.8754 95.7987 21.8754C97.9235 21.8754 100 20.6843 100 18.0443V10.3822H97.9718ZM95.7182 16.4829C94.4143 16.4829 93.4646 15.5654 93.4646 14.2777C93.4646 13.006 94.4143 12.0885 95.7182 12.0885C97.0221 12.0885 97.9718 13.006 97.9718 14.2777C97.9718 15.5654 97.0221 16.4829 95.7182 16.4829Z" fill="#F9FAFB"/>
<path d="M53.0264 21.6501H50.7407L47.5213 26.9782L44.2858 21.6501H42V32.918H44.2214V25.626L47.3925 30.8415H47.65L50.8212 25.6099V32.918H53.0264V21.6501Z" fill="#F9FAFB"/>
<path d="M58.3776 33.1433C60.7438 33.1433 62.6433 31.2922 62.6433 28.8937C62.6433 26.4953 60.7438 24.6441 58.3776 24.6441C56.0113 24.6441 54.128 26.4953 54.128 28.8937C54.128 31.2922 56.0113 33.1433 58.3776 33.1433ZM58.3776 31.1151C57.1542 31.1151 56.2045 30.1976 56.2045 28.8937C56.2045 27.5899 57.1542 26.6723 58.3776 26.6723C59.617 26.6723 60.5668 27.5899 60.5668 28.8937C60.5668 30.1976 59.617 31.1151 58.3776 31.1151Z" fill="#F9FAFB"/>
<path d="M67.4522 33.1433C69.8185 33.1433 71.718 31.2922 71.718 28.8937C71.718 26.4953 69.8185 24.6441 67.4522 24.6441C65.086 24.6441 63.2026 26.4953 63.2026 28.8937C63.2026 31.2922 65.086 33.1433 67.4522 33.1433ZM67.4522 31.1151C66.2289 31.1151 65.2792 30.1976 65.2792 28.8937C65.2792 27.5899 66.2289 26.6723 67.4522 26.6723C68.6917 26.6723 69.6414 27.5899 69.6414 28.8937C69.6414 30.1976 68.6917 31.1151 67.4522 31.1151Z" fill="#F9FAFB"/>
<path d="M78.7966 21.6501V25.8192C78.2171 25.0787 77.364 24.6441 76.1889 24.6441C74.0319 24.6441 72.2612 26.4953 72.2612 28.8937C72.2612 31.2922 74.0319 33.1433 76.1889 33.1433C77.364 33.1433 78.2171 32.7087 78.7966 31.9683V32.918H80.8731V21.6501H78.7966ZM76.5752 31.1634C75.2875 31.1634 74.3377 30.2459 74.3377 28.8937C74.3377 27.5416 75.2875 26.624 76.5752 26.624C77.8469 26.624 78.7966 27.5416 78.7966 28.8937C78.7966 30.2459 77.8469 31.1634 76.5752 31.1634Z" fill="#F9FAFB"/>
<path d="M84.1419 27.1552C84.1419 26.7206 84.5605 26.4953 85.0756 26.4953C85.6712 26.4953 86.1219 26.8011 86.3633 27.3162L88.134 26.3504C87.5062 25.2397 86.3794 24.6441 85.0756 24.6441C83.4176 24.6441 82.0171 25.5616 82.0171 27.2035C82.0171 30.0366 86.1702 29.3927 86.1702 30.5678C86.1702 31.0346 85.7194 31.26 85.0595 31.26C84.2546 31.26 83.7073 30.8737 83.482 30.2137L81.6791 31.2278C82.2586 32.4673 83.4498 33.1433 85.0595 33.1433C86.7818 33.1433 88.295 32.3063 88.295 30.5678C88.295 27.606 84.1419 28.3464 84.1419 27.1552Z" fill="#F9FAFB"/>
</svg>
