<svg width="128" height="48" viewBox="0 0 128 48" fill="none" xmlns="http://www.w3.org/2000/svg">
<rect x="5.25" y="5.25" width="37.5" height="37.5" fill="#C7D2FE"/>
<mask id="mask0_843_10422" style="mask-type:alpha" maskUnits="userSpaceOnUse" x="11" y="11" width="26" height="26">
<path d="M36.5 36.5L11.5 36.5L11.5 11.5L36.5 11.5L36.5 36.5Z" fill="#D9D9D9"/>
</mask>
<g mask="url(#mask0_843_10422)">
<path d="M20.3544 25.1719C19.9202 25.1719 19.5513 25.3238 19.2475 25.6275C18.9438 25.9313 18.7919 26.3002 18.7919 26.7344C18.7919 27.1685 18.9438 27.5331 19.2475 27.8281C19.5513 28.1231 19.9202 28.2706 20.3544 28.2706C20.771 28.2706 21.1313 28.1231 21.435 27.8281C21.7388 27.5331 21.8906 27.1685 21.8906 26.7344C21.8906 26.3002 21.7388 25.9313 21.435 25.6275C21.1313 25.3238 20.771 25.1719 20.3544 25.1719ZM27.6456 25.1719C27.229 25.1719 26.8688 25.3238 26.565 25.6275C26.2613 25.9313 26.1094 26.2915 26.1094 26.7081C26.1094 27.1423 26.2613 27.5113 26.565 27.815C26.8688 28.1188 27.229 28.2706 27.6456 28.2706C28.0798 28.2706 28.4488 28.1231 28.7525 27.8281C29.0563 27.5331 29.2081 27.1685 29.2081 26.7344C29.2081 26.3002 29.0563 25.9313 28.7525 25.6275C28.4488 25.3238 28.0798 25.1719 27.6456 25.1719ZM24 18.2969C22.8367 18.2969 21.7733 18.6138 20.81 19.2475C19.8463 19.8813 19.1475 20.7275 18.7138 21.7863L20.4063 21.7863C20.7883 21.1613 21.3004 20.6796 21.9425 20.3413C22.585 20.0025 23.2708 19.8331 24 19.8331C24.7292 19.8331 25.415 20.0025 26.0575 20.3413C26.6996 20.6796 27.2029 21.1613 27.5675 21.7863L29.2863 21.7863C28.835 20.7275 28.1319 19.8813 27.1769 19.2475C26.2223 18.6138 25.1633 18.2969 24 18.2969ZM24 13.1669C25.4929 13.1669 26.8992 13.449 28.2188 14.0131C29.5383 14.5773 30.6885 15.3498 31.6694 16.3306C32.6502 17.3115 33.4227 18.4617 33.9869 19.7813C34.551 21.1008 34.8331 22.5071 34.8331 24C34.8331 25.4929 34.551 26.8992 33.9869 28.2188C33.4227 29.5383 32.6502 30.6885 31.6694 31.6694C30.6885 32.6502 29.5383 33.4227 28.2188 33.9869C26.8992 34.551 25.4929 34.8331 24 34.8331C22.5071 34.8331 21.1008 34.551 19.7813 33.9869C18.4617 33.4227 17.3115 32.6502 16.3306 31.6694C15.3498 30.6885 14.5773 29.5383 14.0131 28.2188C13.449 26.8992 13.1669 25.4929 13.1669 24C13.1669 22.5071 13.449 21.1008 14.0131 19.7813C14.5773 18.4617 15.3498 17.3115 16.3306 16.3306C17.3115 15.3498 18.4617 14.5773 19.7813 14.0131C21.1008 13.449 22.5071 13.1669 24 13.1669ZM24 15.4581C21.6217 15.4581 19.6033 16.2871 17.945 17.945C16.2871 19.6033 15.4581 21.6217 15.4581 24C15.4581 26.3783 16.2871 28.3965 17.945 30.0544C19.6033 31.7127 21.6217 32.5419 24 32.5419C26.3783 32.5419 28.3967 31.7127 30.055 30.0544C31.7129 28.3965 32.5419 26.3783 32.5419 24C32.5419 21.6217 31.7129 19.6033 30.055 17.945C28.3967 16.2871 26.3783 15.4581 24 15.4581Z" fill="#111827"/>
</g>
<rect x="5.25" y="5.25" width="37.5" height="37.5" stroke="#111827" stroke-width="2.5"/>
<path d="M65.5093 8.27205H62.7088L58.7645 14.7999L54.8005 8.27205H52V22.0772H54.7216V13.1433L58.6067 19.5331H58.9223L62.8074 13.1236V22.0772H65.5093V8.27205Z" fill="#111827"/>
<path d="M69.9157 18.192H77.3507C77.4099 17.8567 77.4493 17.5215 77.4493 17.1468C77.4493 14.2477 75.3786 11.9403 72.4598 11.9403C69.3635 11.9403 67.2533 14.2083 67.2533 17.1468C67.2533 20.0853 69.3438 22.3533 72.657 22.3533C74.5503 22.3533 76.0294 21.5841 76.9563 20.2431L74.9052 19.0598C74.4714 19.6317 73.6825 20.0458 72.6964 20.0458C71.3554 20.0458 70.2707 19.4936 69.9157 18.192ZM69.8762 16.2199C70.1721 14.9577 71.099 14.228 72.4598 14.228C73.5247 14.228 74.5897 14.7999 74.9052 16.2199H69.8762Z" fill="#111827"/>
<path d="M81.1008 18.192H88.5358C88.595 17.8567 88.6344 17.5215 88.6344 17.1468C88.6344 14.2477 86.5636 11.9403 83.6448 11.9403C80.5486 11.9403 78.4383 14.2083 78.4383 17.1468C78.4383 20.0853 80.5288 22.3533 83.8421 22.3533C85.7353 22.3533 87.2145 21.5841 88.1414 20.2431L86.0903 19.0598C85.6564 19.6317 84.8676 20.0458 83.8815 20.0458C82.5404 20.0458 81.4557 19.4936 81.1008 18.192ZM81.0613 16.2199C81.3571 14.9577 82.2841 14.228 83.6448 14.228C84.7098 14.228 85.7748 14.7999 86.0903 16.2199H81.0613Z" fill="#111827"/>
<path d="M95.5647 14.6618V12.2164H93.3362V9.45534L90.7921 10.2245V12.2164H89.0763V14.6618H90.7921V18.7639C90.7921 21.4264 91.9951 22.4716 95.5647 22.0772V19.7697C94.1053 19.8486 93.3362 19.8289 93.3362 18.7639V14.6618H95.5647Z" fill="#111827"/>
<path d="M98.4234 11.0331C99.2912 11.0331 100.001 10.3231 100.001 9.47507C100.001 8.62704 99.2912 7.89734 98.4234 7.89734C97.5754 7.89734 96.8654 8.62704 96.8654 9.47507C96.8654 10.3231 97.5754 11.0331 98.4234 11.0331ZM97.1612 22.0772H99.7053V12.2164H97.1612V22.0772Z" fill="#111827"/>
<path d="M107.319 11.9403C105.998 11.9403 104.972 12.4333 104.381 13.3208V12.2164H101.837V22.0772H104.381V16.7523C104.381 15.0366 105.308 14.3069 106.55 14.3069C107.694 14.3069 108.503 14.9971 108.503 16.3382V22.0772H111.047V16.0226C111.047 13.3997 109.41 11.9403 107.319 11.9403Z" fill="#111827"/>
<path d="M120.575 12.2164V13.4391C119.885 12.5122 118.82 11.9403 117.42 11.9403C114.619 11.9403 112.509 14.228 112.509 16.989C112.509 19.7697 114.619 22.0377 117.42 22.0377C118.82 22.0377 119.885 21.4658 120.575 20.5389V21.6038C120.575 23.1619 119.589 24.0296 117.992 24.0296C116.473 24.0296 115.822 23.4182 115.408 22.6491L113.239 23.8916C114.106 25.489 115.802 26.2976 117.913 26.2976C120.516 26.2976 123.06 24.8382 123.06 21.6038V12.2164H120.575ZM117.814 19.6909C116.217 19.6909 115.053 18.5667 115.053 16.989C115.053 15.431 116.217 14.3069 117.814 14.3069C119.412 14.3069 120.575 15.431 120.575 16.989C120.575 18.5667 119.412 19.6909 117.814 19.6909Z" fill="#111827"/>
<path d="M65.5093 26.0215H62.7088L58.7645 32.5493L54.8005 26.0215H52V39.8266H54.7216V30.8927L58.6067 37.2825H58.9223L62.8074 30.873V39.8266H65.5093V26.0215Z" fill="#111827"/>
<path d="M72.0653 40.1027C74.9644 40.1027 77.2916 37.8347 77.2916 34.8962C77.2916 31.9577 74.9644 29.6897 72.0653 29.6897C69.1663 29.6897 66.8588 31.9577 66.8588 34.8962C66.8588 37.8347 69.1663 40.1027 72.0653 40.1027ZM72.0653 37.6178C70.5665 37.6178 69.4029 36.4937 69.4029 34.8962C69.4029 33.2988 70.5665 32.1746 72.0653 32.1746C73.5839 32.1746 74.7475 33.2988 74.7475 34.8962C74.7475 36.4937 73.5839 37.6178 72.0653 37.6178Z" fill="#111827"/>
<path d="M83.1834 40.1027C86.0825 40.1027 88.4096 37.8347 88.4096 34.8962C88.4096 31.9577 86.0825 29.6897 83.1834 29.6897C80.2843 29.6897 77.9769 31.9577 77.9769 34.8962C77.9769 37.8347 80.2843 40.1027 83.1834 40.1027ZM83.1834 37.6178C81.6845 37.6178 80.521 36.4937 80.521 34.8962C80.521 33.2988 81.6845 32.1746 83.1834 32.1746C84.702 32.1746 85.8655 33.2988 85.8655 34.8962C85.8655 36.4937 84.702 37.6178 83.1834 37.6178Z" fill="#111827"/>
<path d="M97.0822 26.0215V31.1294C96.3722 30.2222 95.327 29.6897 93.8873 29.6897C91.2446 29.6897 89.0752 31.9577 89.0752 34.8962C89.0752 37.8347 91.2446 40.1027 93.8873 40.1027C95.327 40.1027 96.3722 39.5702 97.0822 38.663V39.8266H99.6263V26.0215H97.0822ZM94.3606 37.677C92.7829 37.677 91.6193 36.5528 91.6193 34.8962C91.6193 33.2396 92.7829 32.1155 94.3606 32.1155C95.9186 32.1155 97.0822 33.2396 97.0822 34.8962C97.0822 36.5528 95.9186 37.677 94.3606 37.677Z" fill="#111827"/>
<path d="M103.631 32.7663C103.631 32.2338 104.144 31.9577 104.775 31.9577C105.505 31.9577 106.057 32.3324 106.353 32.9635L108.522 31.7802C107.753 30.4194 106.372 29.6897 104.775 29.6897C102.744 29.6897 101.028 30.8138 101.028 32.8254C101.028 36.2964 106.116 35.5076 106.116 36.9473C106.116 37.5192 105.564 37.7953 104.755 37.7953C103.769 37.7953 103.099 37.322 102.823 36.5134L100.614 37.7558C101.324 39.2744 102.783 40.1027 104.755 40.1027C106.865 40.1027 108.719 39.0772 108.719 36.9473C108.719 33.3185 103.631 34.2257 103.631 32.7663Z" fill="#111827"/>
</svg>
