<svg width="100%" height="100%" viewBox="0 0 128 48" fill="currentColor" xmlns="http://www.w3.org/2000/svg">
<path fill-rule="evenodd" clip-rule="evenodd" d="M41.5 6.5H6.5V41.5H41.5V6.5ZM4 4V44H44V4H4Z" fill="#F9FAFB"/>
<path d="M20.5212 25.3388C20.0871 25.3388 19.7181 25.4906 19.4144 25.7944C19.1106 26.0981 18.9587 26.4671 18.9587 26.9013C18.9587 27.3354 19.1106 27.7 19.4144 27.995C19.7181 28.29 20.0871 28.4375 20.5212 28.4375C20.9379 28.4375 21.2981 28.29 21.6019 27.995C21.9056 27.7 22.0575 27.3354 22.0575 26.9013C22.0575 26.4671 21.9056 26.0981 21.6019 25.7944C21.2981 25.4906 20.9379 25.3388 20.5212 25.3388ZM27.8125 25.3388C27.3958 25.3388 27.0356 25.4906 26.7319 25.7944C26.4281 26.0981 26.2762 26.4583 26.2762 26.875C26.2762 27.3092 26.4281 27.6781 26.7319 27.9819C27.0356 28.2856 27.3958 28.4375 27.8125 28.4375C28.2467 28.4375 28.6156 28.29 28.9194 27.995C29.2231 27.7 29.375 27.3354 29.375 26.9013C29.375 26.4671 29.2231 26.0981 28.9194 25.7944C28.6156 25.4906 28.2467 25.3388 27.8125 25.3388ZM24.1669 18.4637C23.0035 18.4637 21.9402 18.7806 20.9769 19.4144C20.0131 20.0481 19.3144 20.8944 18.8806 21.9531H20.5731C20.9552 21.3281 21.4673 20.8465 22.1094 20.5081C22.7519 20.1694 23.4377 20 24.1669 20C24.896 20 25.5819 20.1694 26.2244 20.5081C26.8665 20.8465 27.3698 21.3281 27.7344 21.9531H29.4531C29.0019 20.8944 28.2987 20.0481 27.3437 19.4144C26.3892 18.7806 25.3302 18.4637 24.1669 18.4637ZM24.1669 13.3338C25.6598 13.3338 27.066 13.6158 28.3856 14.18C29.7052 14.7442 30.8554 15.5167 31.8362 16.4975C32.8171 17.4783 33.5896 18.6285 34.1537 19.9481C34.7179 21.2677 35 22.674 35 24.1669C35 25.6598 34.7179 27.066 34.1537 28.3856C33.5896 29.7052 32.8171 30.8554 31.8363 31.8363C30.8554 32.8171 29.7052 33.5896 28.3856 34.1538C27.066 34.7179 25.6598 35 24.1669 35C22.674 35 21.2677 34.7179 19.9481 34.1538C18.6285 33.5896 17.4783 32.8171 16.4975 31.8363C15.5167 30.8554 14.7442 29.7052 14.18 28.3856C13.6158 27.066 13.3337 25.6598 13.3337 24.1669C13.3337 22.674 13.6158 21.2677 14.18 19.9481C14.7442 18.6285 15.5167 17.4783 16.4975 16.4975C17.4783 15.5167 18.6285 14.7442 19.9481 14.18C21.2677 13.6158 22.674 13.3338 24.1669 13.3338ZM24.1669 15.625C21.7885 15.625 19.7702 16.454 18.1119 18.1119C16.454 19.7702 15.625 21.7885 15.625 24.1669C15.625 26.5452 16.454 28.5633 18.1119 30.2213C19.7702 31.8796 21.7885 32.7088 24.1669 32.7088C26.5452 32.7088 28.5635 31.8796 30.2219 30.2213C31.8798 28.5633 32.7087 26.5452 32.7087 24.1669C32.7087 21.7885 31.8798 19.7702 30.2219 18.1119C28.5635 16.454 26.5452 15.625 24.1669 15.625Z" fill="#F9FAFB"/>
<path d="M65.5093 8.27217H62.7088L58.7645 14.8L54.8005 8.27217H52V22.0773H54.7216V13.1434L58.6067 19.5332H58.9223L62.8074 13.1237V22.0773H65.5093V8.27217Z" fill="#F9FAFB"/>
<path d="M69.9157 18.1921H77.3507C77.4099 17.8569 77.4493 17.5216 77.4493 17.1469C77.4493 14.2478 75.3786 11.9404 72.4598 11.9404C69.3635 11.9404 67.2533 14.2084 67.2533 17.1469C67.2533 20.0854 69.3438 22.3534 72.657 22.3534C74.5503 22.3534 76.0294 21.5843 76.9563 20.2432L74.9052 19.0599C74.4714 19.6318 73.6825 20.046 72.6964 20.046C71.3554 20.046 70.2707 19.4938 69.9157 18.1921ZM69.8762 16.22C70.1721 14.9578 71.099 14.2281 72.4598 14.2281C73.5247 14.2281 74.5897 14.8 74.9052 16.22H69.8762Z" fill="#F9FAFB"/>
<path d="M81.1008 18.1921H88.5358C88.595 17.8569 88.6344 17.5216 88.6344 17.1469C88.6344 14.2478 86.5636 11.9404 83.6448 11.9404C80.5486 11.9404 78.4383 14.2084 78.4383 17.1469C78.4383 20.0854 80.5288 22.3534 83.8421 22.3534C85.7353 22.3534 87.2145 21.5843 88.1414 20.2432L86.0903 19.0599C85.6564 19.6318 84.8676 20.046 83.8815 20.046C82.5404 20.046 81.4557 19.4938 81.1008 18.1921ZM81.0613 16.22C81.3571 14.9578 82.2841 14.2281 83.6448 14.2281C84.7098 14.2281 85.7748 14.8 86.0903 16.22H81.0613Z" fill="#F9FAFB"/>
<path d="M95.5647 14.662V12.2165H93.3362V9.45547L90.7921 10.2246V12.2165H89.0763V14.662H90.7921V18.7641C90.7921 21.4265 91.9951 22.4717 95.5647 22.0773V19.7699C94.1053 19.8487 93.3362 19.829 93.3362 18.7641V14.662H95.5647Z" fill="#F9FAFB"/>
<path d="M98.4234 11.0332C99.2912 11.0332 100.001 10.3232 100.001 9.47519C100.001 8.62716 99.2912 7.89746 98.4234 7.89746C97.5754 7.89746 96.8654 8.62716 96.8654 9.47519C96.8654 10.3232 97.5754 11.0332 98.4234 11.0332ZM97.1612 22.0773H99.7053V12.2165H97.1612V22.0773Z" fill="#F9FAFB"/>
<path d="M107.319 11.9404C105.998 11.9404 104.972 12.4334 104.381 13.3209V12.2165H101.837V22.0773H104.381V16.7525C104.381 15.0367 105.308 14.307 106.55 14.307C107.694 14.307 108.503 14.9972 108.503 16.3383V22.0773H111.047V16.0228C111.047 13.3998 109.41 11.9404 107.319 11.9404Z" fill="#F9FAFB"/>
<path d="M120.575 12.2165V13.4392C119.885 12.5123 118.82 11.9404 117.42 11.9404C114.619 11.9404 112.509 14.2281 112.509 16.9891C112.509 19.7699 114.619 22.0378 117.42 22.0378C118.82 22.0378 119.885 21.4659 120.575 20.539V21.604C120.575 23.162 119.589 24.0297 117.992 24.0297C116.473 24.0297 115.822 23.4184 115.408 22.6492L113.239 23.8917C114.106 25.4891 115.802 26.2977 117.913 26.2977C120.516 26.2977 123.06 24.8383 123.06 21.604V12.2165H120.575ZM117.814 19.691C116.217 19.691 115.053 18.5668 115.053 16.9891C115.053 15.4311 116.217 14.307 117.814 14.307C119.412 14.307 120.575 15.4311 120.575 16.9891C120.575 18.5668 119.412 19.691 117.814 19.691Z" fill="#F9FAFB"/>
<path d="M65.5093 26.0216H62.7088L58.7645 32.5495L54.8005 26.0216H52V39.8267H54.7216V30.8928L58.6067 37.2826H58.9223L62.8074 30.8731V39.8267H65.5093V26.0216Z" fill="#F9FAFB"/>
<path d="M72.0653 40.1028C74.9644 40.1028 77.2916 37.8348 77.2916 34.8963C77.2916 31.9578 74.9644 29.6898 72.0653 29.6898C69.1663 29.6898 66.8588 31.9578 66.8588 34.8963C66.8588 37.8348 69.1663 40.1028 72.0653 40.1028ZM72.0653 37.6179C70.5665 37.6179 69.4029 36.4938 69.4029 34.8963C69.4029 33.2989 70.5665 32.1747 72.0653 32.1747C73.5839 32.1747 74.7475 33.2989 74.7475 34.8963C74.7475 36.4938 73.5839 37.6179 72.0653 37.6179Z" fill="#F9FAFB"/>
<path d="M83.1834 40.1028C86.0825 40.1028 88.4096 37.8348 88.4096 34.8963C88.4096 31.9578 86.0825 29.6898 83.1834 29.6898C80.2843 29.6898 77.9769 31.9578 77.9769 34.8963C77.9769 37.8348 80.2843 40.1028 83.1834 40.1028ZM83.1834 37.6179C81.6845 37.6179 80.521 36.4938 80.521 34.8963C80.521 33.2989 81.6845 32.1747 83.1834 32.1747C84.702 32.1747 85.8655 33.2989 85.8655 34.8963C85.8655 36.4938 84.702 37.6179 83.1834 37.6179Z" fill="#F9FAFB"/>
<path d="M97.0822 26.0216V31.1295C96.3722 30.2223 95.327 29.6898 93.8873 29.6898C91.2446 29.6898 89.0752 31.9578 89.0752 34.8963C89.0752 37.8348 91.2446 40.1028 93.8873 40.1028C95.327 40.1028 96.3722 39.5703 97.0822 38.6632V39.8267H99.6263V26.0216H97.0822ZM94.3606 37.6771C92.7829 37.6771 91.6193 36.5529 91.6193 34.8963C91.6193 33.2397 92.7829 32.1156 94.3606 32.1156C95.9186 32.1156 97.0822 33.2397 97.0822 34.8963C97.0822 36.5529 95.9186 37.6771 94.3606 37.6771Z" fill="#F9FAFB"/>
<path d="M103.631 32.7664C103.631 32.2339 104.144 31.9578 104.775 31.9578C105.505 31.9578 106.057 32.3325 106.353 32.9636L108.522 31.7803C107.753 30.4195 106.372 29.6898 104.775 29.6898C102.744 29.6898 101.028 30.814 101.028 32.8256C101.028 36.2966 106.116 35.5077 106.116 36.9474C106.116 37.5193 105.564 37.7954 104.755 37.7954C103.769 37.7954 103.099 37.3221 102.823 36.5135L100.614 37.756C101.324 39.2745 102.783 40.1028 104.755 40.1028C106.865 40.1028 108.719 39.0773 108.719 36.9474C108.719 33.3186 103.631 34.2258 103.631 32.7664Z" fill="#F9FAFB"/>
</svg>
